<svg width="226" height="226" viewBox="0 0 226 226" fill="none" xmlns="http://www.w3.org/2000/svg">
<path d="M90.8001 225C90.8001 225 58.4001 219.9 25.2001 183.4C-7.99989 146.9 2.70011 90.7 2.70011 90.7C2.70011 90.7 5.80011 56.7 39.2001 27.9C72.6001 -0.899988 109.9 0.300008 109.9 0.300008C109.9 0.300008 133.4 1.04904e-05 154.3 6.90001C175.2 13.8 188.8 29.9 188.8 29.9C188.8 29.9 200.8 40.4 205.1 53.6C209.4 66.8 206.9 69.4 206.9 69.4C206.9 69.4 205.6 84.7 194.6 96.7C183.6 108.7 166.8 116.6 166.8 116.6L151.2 118.6L127.2 121.7C127.2 121.7 105.5 123.7 85.8001 146.2C66.1001 168.7 73.7001 192 73.7001 192C73.7001 192 73.9001 208.9 90.8001 225Z" fill="#041C16" stroke="black" stroke-width="0.5" stroke-miterlimit="10"/>
<path d="M220 89.9C220 89.9 210.3 108.5 195.7 120.3C181.1 132.1 156.9 137.4 156.9 137.4L128.6 140C128.6 140 108.9 145.9 98.1999 160.4C87.4999 175 92.7999 195.1 92.7999 195.1C92.7999 195.1 98.1999 213.5 114.2 217.8C130.2 222.1 144.8 220.9 144.8 220.9C144.8 220.9 166.2 216.3 177.7 207.6C189.2 198.9 205.5 182.6 208.8 175.9C212.1 169.3 221.3 159.6 222.8 141.4C224.3 123.2 228.1 109.3 220 89.9Z" fill="#041C16" stroke="black" stroke-width="0.5" stroke-miterlimit="10"/>
<path d="M111.7 61L119.6 55.1L120.4 45.9L133.4 33.4L127.3 28C127.3 28 126 18 132.7 15.2C139.3 12.4 149.8 17.2 149.8 17.2C156.3 19.7 163.9 23.3 171.7 28.6C189.9 40.8 200.7 55.8 206.6 65.7C206.2 68.2 205.6 71.5 204.6 75.3C204.5 75.6 203 81.1 201 85.3C197.2 93.5 191 98.6 185.4 103.3C181.1 106.9 174.7 111.5 166 115.6C162.1 116.1 158.3 116.6 154.4 117.1C147 118.1 147.3 118.1 142.7 118.7C132.2 120 130.8 120 126.1 120.9C121.4 121.8 117.6 122.8 115 123.6C113.6 122.1 112.2 120.5 110.8 119L112.8 98.8C112.8 98.8 122 88.8 126.1 86.8C130.2 84.8 135.5 75.8 135.5 75.8L149.8 75C149.8 75 153.6 73.5 158 85.7L163.1 85.6L172.2 91L175.2 91.7C175.2 91.7 176.7 88.6 177.8 81.9L167.1 68.4L156.3 68.1L138.8 58C138.8 58 138.1 57.6 134.6 61.6C131.1 65.6 122.5 75.4 122.5 75.4C122.5 75.4 114 81.1 111.2 69.9C111.4 66.9 111.5 64 111.7 61Z" fill="url(#paint0_linear_834_522)" stroke="black" stroke-width="0.5" stroke-miterlimit="10"/>
<path d="M114.6 25C114.6 25 112.6 27.1 111.9 28.8C111.1 30.5 111.6 36.7 111.6 36.7C111.6 36.7 116.8 43.5 120.9 36L119.1 28.3C119.1 28.4 118.6 24.7 114.6 25Z" fill="#55A2A8" stroke="black" stroke-width="0.5" stroke-miterlimit="10"/>
<path d="M224.4 110.1L218.3 116.4L215.7 125L204.3 158.1C204.3 158.1 194.3 176 193.8 176C193.3 176 186.8 185.7 181 192.1C175.3 198.5 167.1 200.4 167.1 200.4L163 188.4L162.1 172.2C162.1 172.2 167 161.9 162.2 156.6C157.4 151.3 155.7 144.6 155.2 137.5C155.2 137.5 204.7 129.2 219.8 90.1L224.4 110.1Z" fill="url(#paint1_linear_834_522)" stroke="black" stroke-width="0.5" stroke-miterlimit="10"/>
<defs>
<linearGradient id="paint0_linear_834_522" x1="158.617" y1="14.4655" x2="158.617" y2="123.596" gradientUnits="userSpaceOnUse">
<stop offset="2.13112e-07" stop-color="#56A2A8"/>
<stop offset="0.4401" stop-color="#509596"/>
<stop offset="0.9359" stop-color="#47837F"/>
</linearGradient>
<linearGradient id="paint1_linear_834_522" x1="189.894" y1="89.8936" x2="189.894" y2="200.191" gradientUnits="userSpaceOnUse">
<stop stop-color="#47837F"/>
<stop offset="0.449" stop-color="#4D9090"/>
<stop offset="0.9359" stop-color="#56A2A8"/>
</linearGradient>
</defs>
</svg>
